<?xml version="1.0" encoding="UTF-8"?>
<svg xmlns="http://www.w3.org/2000/svg" viewBox="0 0 1152 648" width="1152" height="648" shape-rendering="crispEdges">

  <rect x="0" y="0" width="1152" height="648" fill="#2A1547"/>

  <!-- estrelas decorativas espalhadas -->
  <g fill="#FFFFFF" opacity="0.9">
    <rect x="135" y="95" width="6" height="6"/>
    <rect x="275" y="65" width="6" height="6"/>
    <rect x="900" y="90" width="6" height="6"/>
    <rect x="1015" y="150" width="6" height="6"/>
    <rect x="195" y="200" width="4" height="4"/>
    <rect x="980" y="250" width="4" height="4"/>
    <rect x="120" y="470" width="5" height="5"/>
    <rect x="1030" y="490" width="5" height="5"/>
    <rect x="240" y="540" width="4" height="4"/>
    <rect x="890" y="560" width="4" height="4"/>
  </g>

  <!-- brilhos dourados (cruz) -->
  <g fill="#FFD93D">
    <rect x="170" y="140" width="4" height="14"/><rect x="165" y="145" width="14" height="4"/>
    <rect x="940" y="170" width="4" height="14"/><rect x="935" y="175" width="14" height="4"/>
    <rect x="370" y="110" width="4" height="12"/><rect x="366" y="114" width="12" height="4"/>
    <rect x="790" y="105" width="4" height="12"/><rect x="786" y="109" width="12" height="4"/>
    <rect x="90" y="320" width="4" height="12"/><rect x="86" y="324" width="12" height="4"/>
    <rect x="1050" y="350" width="4" height="12"/><rect x="1046" y="354" width="12" height="4"/>
    <rect x="280" y="500" width="3" height="10"/><rect x="277" y="503" width="10" height="3"/>
    <rect x="860" y="510" width="3" height="10"/><rect x="857" y="513" width="10" height="3"/>
  </g>

</svg>
