<?xml version="1.0" encoding="UTF-8"?>
<svg xmlns="http://www.w3.org/2000/svg" viewBox="0 0 200 260" width="200" height="260" shape-rendering="crispEdges">

  <rect x="0" y="0" width="200" height="260" fill="#3D1F66"/>
  <rect x="0" y="0" width="200" height="260" fill="none" stroke="#FFD93D" stroke-width="6"/>

  <!-- chapéu de aprendiz -->
  <polygon points="70,70 100,25 130,70" fill="#5B2D8E"/>
  <polygon points="78,65 100,35 122,65" fill="#7B4FB5"/>
  <rect x="96" y="22" width="8" height="8" fill="#FFD93D"/>
  <rect x="88" y="50" width="6" height="6" fill="#FFD93D"/>
  <rect x="106" y="58" width="5" height="5" fill="#FFD93D"/>

  <!-- cabeça -->
  <rect x="74" y="72" width="52" height="50" fill="#FFD93D"/>
  <rect x="82" y="88" width="9" height="9" fill="#1A0A30"/>
  <rect x="109" y="88" width="9" height="9" fill="#1A0A30"/>
  <rect x="88" y="106" width="24" height="5" fill="#1A0A30"/>
  <rect x="70" y="95" width="6" height="10" fill="#E8B82B"/>
  <rect x="124" y="95" width="6" height="10" fill="#E8B82B"/>

  <!-- corpo / túnica -->
  <rect x="68" y="122" width="64" height="62" fill="#5B2D8E"/>
  <rect x="68" y="122" width="64" height="10" fill="#7B4FB5"/>
  <!-- símbolo de fração na túnica -->
  <rect x="90" y="138" width="20" height="5" fill="#FFD93D"/>
  <rect x="97" y="132" width="6" height="6" fill="#FFD93D"/>
  <rect x="90" y="148" width="20" height="5" fill="#FFD93D"/>
  <rect x="97" y="153" width="6" height="6" fill="#FFD93D"/>

  <!-- braços -->
  <rect x="54" y="128" width="14" height="40" fill="#FFD93D"/>
  <rect x="132" y="128" width="14" height="40" fill="#FFD93D"/>

  <!-- pernas -->
  <rect x="78" y="184" width="18" height="34" fill="#3D1F66"/>
  <rect x="104" y="184" width="18" height="34" fill="#3D1F66"/>
  <rect x="74" y="218" width="24" height="12" fill="#1A0A30"/>
  <rect x="102" y="218" width="24" height="12" fill="#1A0A30"/>

  <text x="100" y="250" font-family="Courier New, monospace" font-size="20" font-weight="bold" fill="#FFD93D" text-anchor="middle">PIXEL</text>

</svg>
